<svg width="20" height="20" viewBox="0 0 20 20" fill="none" xmlns="http://www.w3.org/2000/svg">
<mask id="mask0_91_2656" style="mask-type:luminance" maskUnits="userSpaceOnUse" x="3" y="3" width="15" height="15">
<path fill-rule="evenodd" clip-rule="evenodd" d="M3 3.7674H17.3964V17.4806H3V3.7674Z" fill="white"/>
</mask>
<g mask="url(#mask0_91_2656)">
<path fill-rule="evenodd" clip-rule="evenodd" d="M4.2839 10.1815C5.26979 13.2488 9.16484 15.729 10.2 16.3429C11.2386 15.7227 15.1618 13.2151 16.116 10.1843C16.7426 8.22514 16.161 5.74353 13.8503 4.99884C12.7308 4.6395 11.4249 4.8582 10.5234 5.55578C10.335 5.70064 10.0734 5.70345 9.88352 5.56C8.92857 4.84202 7.68108 4.63177 6.544 4.99884C4.23679 5.74283 3.65734 8.22444 4.2839 10.1815ZM10.1994 17.48C10.1122 17.48 10.0257 17.4589 9.94693 17.416C9.72683 17.2957 4.5421 14.4379 3.27844 10.5042C3.27774 10.5042 3.27774 10.5035 3.27774 10.5035C2.48452 8.02678 3.36775 4.9144 6.21924 3.99531C7.55814 3.56214 9.01729 3.75271 10.1973 4.4974C11.3407 3.7745 12.8596 3.57479 14.1718 3.99531C17.0261 4.91581 17.9121 8.02749 17.1196 10.5035C15.8967 14.3922 10.674 17.2929 10.4525 17.4146C10.3738 17.4582 10.2866 17.48 10.1994 17.48Z" fill="#B8B8B8"/>
</g>
<path fill-rule="evenodd" clip-rule="evenodd" d="M14.3584 9.12954C14.0863 9.12954 13.8556 8.92069 13.8331 8.64504C13.7867 8.067 13.3999 7.57898 12.8493 7.40107C12.5716 7.31106 12.4197 7.0136 12.509 6.73724C12.5997 6.46018 12.8943 6.30969 13.1728 6.39689C14.1313 6.707 14.8028 7.55577 14.8851 8.55924C14.9083 8.84967 14.6924 9.10423 14.402 9.12743C14.3872 9.12884 14.3732 9.12954 14.3584 9.12954Z" fill="#B8B8B8"/>
</svg>
