<svg width="16" height="15" viewBox="0 0 16 15" fill="none" xmlns="http://www.w3.org/2000/svg">
<path fill-rule="evenodd" clip-rule="evenodd" d="M1.24481 7.5C1.32138 7.62591 1.42947 7.79637 1.56809 7.9976C1.87841 8.44806 2.33855 9.04803 2.93697 9.64645C4.14075 10.8502 5.85413 12 8.00008 12C10.146 12 11.8594 10.8502 13.0632 9.64645C13.6616 9.04803 14.1218 8.44806 14.4321 7.9976C14.5707 7.79638 14.6788 7.62591 14.7554 7.5C14.6788 7.37409 14.5707 7.20362 14.4321 7.0024C14.1218 6.55194 13.6616 5.95197 13.0632 5.35355C11.8594 4.14977 10.146 3 8.00008 3C5.85413 3 4.14075 4.14977 2.93697 5.35355C2.33855 5.95197 1.87841 6.55194 1.56809 7.0024C1.42947 7.20363 1.32138 7.37409 1.24481 7.5ZM15.3334 7.5C15.7746 7.26471 15.7745 7.26453 15.7744 7.26434L15.7741 7.26385L15.7734 7.26254L15.7713 7.25855L15.764 7.24524C15.7579 7.23404 15.7491 7.21821 15.7378 7.19807C15.715 7.15781 15.6819 7.10026 15.6385 7.02791C15.5517 6.88326 15.4236 6.67905 15.2556 6.4351C14.9201 5.94806 14.4219 5.29803 13.7703 4.64645C12.4741 3.35023 10.5208 2 8.00008 2C5.47937 2 3.52608 3.35023 2.22986 4.64645C1.57828 5.29803 1.08009 5.94806 0.744578 6.4351C0.576524 6.67905 0.448487 6.88326 0.361699 7.02791C0.318287 7.10026 0.285138 7.15781 0.26241 7.19807C0.251044 7.21821 0.242279 7.23404 0.236134 7.24524L0.228882 7.25855L0.226733 7.26254L0.226029 7.26385L0.225769 7.26434C0.225665 7.26453 0.225572 7.26471 0.666748 7.5L0.225572 7.26471C0.14714 7.41176 0.14714 7.58824 0.225572 7.73529L0.666748 7.5C0.225572 7.73529 0.225665 7.73547 0.225769 7.73566L0.226029 7.73615L0.226733 7.73746L0.228882 7.74145L0.236134 7.75476C0.242279 7.76596 0.251044 7.78179 0.26241 7.80193C0.285138 7.84219 0.318287 7.89974 0.361699 7.97209C0.448487 8.11674 0.576524 8.32095 0.744578 8.5649C1.08009 9.05194 1.57828 9.70197 2.22986 10.3536C3.52608 11.6498 5.47937 13 8.00008 13C10.5208 13 12.4741 11.6498 13.7703 10.3536C14.4219 9.70197 14.9201 9.05194 15.2556 8.5649C15.4236 8.32095 15.5517 8.11674 15.6385 7.97209C15.6819 7.89974 15.715 7.84219 15.7378 7.80193C15.7491 7.78179 15.7579 7.76596 15.764 7.75476L15.7713 7.74145L15.7734 7.73746L15.7741 7.73615L15.7744 7.73566C15.7745 7.73547 15.7746 7.73529 15.3334 7.5ZM15.3334 7.5L15.7746 7.73529C15.853 7.58824 15.853 7.41176 15.7746 7.26471L15.3334 7.5Z" fill="black"/>
<path fill-rule="evenodd" clip-rule="evenodd" d="M8 6.125C7.14069 6.125 6.5 6.77052 6.5 7.5C6.5 8.22948 7.14069 8.875 8 8.875C8.85931 8.875 9.5 8.22948 9.5 7.5C9.5 6.77052 8.85931 6.125 8 6.125ZM5.5 7.5C5.5 6.15842 6.65018 5.125 8 5.125C9.34982 5.125 10.5 6.15842 10.5 7.5C10.5 8.84158 9.34982 9.875 8 9.875C6.65018 9.875 5.5 8.84158 5.5 7.5Z" fill="black"/>
</svg>
