<svg width="13" height="9" viewBox="0 0 13 9" fill="none" xmlns="http://www.w3.org/2000/svg">
<path d="M8.30485 0.328155C8.1534 0.479612 8.07767 0.681553 8.07767 0.908738C8.07767 1.13592 8.1534 1.33786 8.30485 1.48932L10.1476 3.3068L2.01942 3.3068C0.883495 3.3068 0 4.21553 0 5.32621V8.1534C0 8.60777 0.353398 8.96117 0.807767 8.96117C1.23689 8.96117 1.61553 8.60777 1.61553 8.1534V5.32621C1.61553 5.12427 1.79223 4.92233 2.01942 4.92233L10.1476 4.92233L8.30485 6.79029C7.9767 7.0932 7.9767 7.6233 8.30485 7.92621C8.60777 8.25437 9.13786 8.25437 9.44078 7.92621L12.6718 4.72039C13 4.41748 13 3.88738 12.6718 3.58447L9.44078 0.353398C9.13786 0 8.60777 0 8.30485 0.328155Z" fill="white"/>
</svg>
