<svg width="15" height="14" viewBox="0 0 15 14" fill="none" xmlns="http://www.w3.org/2000/svg">
<path d="M15.0001 6.81913C15.0001 6.8431 15.0001 6.86708 15.0001 6.89105C14.9884 7.86331 14.0157 8.52391 12.9464 8.52391H10.0782C9.30183 8.52391 8.67194 9.09661 8.67194 9.8025C8.67194 9.89306 8.68366 9.98097 8.70124 10.0662C8.76276 10.3379 8.89167 10.5989 9.01764 10.8627C9.19636 11.2303 9.37214 11.5952 9.37214 11.9814C9.37214 12.8285 8.73932 13.5983 7.80768 13.6329C7.70514 13.6356 7.6026 13.6383 7.49713 13.6383C3.35745 13.6383 0 10.5856 0 6.81913C0 3.05263 3.35745 0 7.50006 0C11.6427 0 15.0001 3.05263 15.0001 6.81913ZM3.75003 7.67152C3.75003 7.44545 3.65126 7.22864 3.47544 7.06879C3.29962 6.90893 3.06116 6.81913 2.81252 6.81913C2.56388 6.81913 2.32542 6.90893 2.1496 7.06879C1.97379 7.22864 1.87501 7.44545 1.87501 7.67152C1.87501 7.89759 1.97379 8.1144 2.1496 8.27425C2.32542 8.43411 2.56388 8.52391 2.81252 8.52391C3.06116 8.52391 3.29962 8.43411 3.47544 8.27425C3.65126 8.1144 3.75003 7.89759 3.75003 7.67152ZM3.75003 5.11435C3.99867 5.11435 4.23713 5.02454 4.41295 4.86469C4.58876 4.70483 4.68754 4.48802 4.68754 4.26196C4.68754 4.03589 4.58876 3.81908 4.41295 3.65922C4.23713 3.49937 3.99867 3.40956 3.75003 3.40956C3.50139 3.40956 3.26293 3.49937 3.08711 3.65922C2.91129 3.81908 2.81252 4.03589 2.81252 4.26196C2.81252 4.48802 2.91129 4.70483 3.08711 4.86469C3.26293 5.02454 3.50139 5.11435 3.75003 5.11435ZM8.43756 2.55717C8.43756 2.33111 8.33879 2.1143 8.16297 1.95444C7.98716 1.79459 7.7487 1.70478 7.50006 1.70478C7.25141 1.70478 7.01296 1.79459 6.83714 1.95444C6.66132 2.1143 6.56255 2.33111 6.56255 2.55717C6.56255 2.78324 6.66132 3.00005 6.83714 3.1599C7.01296 3.31976 7.25141 3.40956 7.50006 3.40956C7.7487 3.40956 7.98716 3.31976 8.16297 3.1599C8.33879 3.00005 8.43756 2.78324 8.43756 2.55717ZM11.2501 5.11435C11.4987 5.11435 11.7372 5.02454 11.913 4.86469C12.0888 4.70483 12.1876 4.48802 12.1876 4.26196C12.1876 4.03589 12.0888 3.81908 11.913 3.65922C11.7372 3.49937 11.4987 3.40956 11.2501 3.40956C11.0014 3.40956 10.763 3.49937 10.5872 3.65922C10.4114 3.81908 10.3126 4.03589 10.3126 4.26196C10.3126 4.48802 10.4114 4.70483 10.5872 4.86469C10.763 5.02454 11.0014 5.11435 11.2501 5.11435Z" fill="#114C5F"/>
</svg>
