<svg width="11" height="11" viewBox="0 0 11 11" fill="none" xmlns="http://www.w3.org/2000/svg">
<path d="M8.64037 0.159585C8.31092 0.049037 7.96443 8.78183e-05 7.61739 8.78183e-05C6.8529 -0.00541209 6.11096 0.247584 5.49992 0.714526C5.45042 0.676577 5.38992 0.643028 5.33492 0.610578C5.27992 0.577029 5.18092 0.49508 5.09843 0.451081L4.88943 0.357582C4.77943 0.297083 4.66448 0.253084 4.54294 0.214034C4.53194 0.203585 4.51544 0.192035 4.49344 0.181585H4.46099C4.13594 0.0710367 3.80045 0.0105377 3.45395 8.78183e-05H3.39345C3.23946 8.78183e-05 3.08601 0.0105377 2.93146 0.0330873H2.86546C2.70047 0.0545369 2.53602 0.0930363 2.37652 0.148035C0.324504 0.819575 -0.406984 3.04704 0.214506 4.99401C0.5665 5.98894 1.13354 6.89148 1.87053 7.63342C2.94246 8.6674 4.11449 9.58038 5.37342 10.3614L5.51642 10.4499L5.65392 10.3669C6.90845 9.58038 8.07388 8.6674 9.13591 7.63892C9.87785 6.89698 10.4443 5.98894 10.7908 4.99401C11.4019 3.04704 10.6704 0.819575 8.64037 0.159585Z" fill="#EC5655"/>
</svg>
