<svg width="13" height="12" viewBox="0 0 13 12" fill="none" xmlns="http://www.w3.org/2000/svg">
<path d="M6.05159 0.177167C6.12834 -0.0590516 6.46252 -0.0590511 6.53928 0.177168L7.84966 4.21012C7.88399 4.31576 7.98243 4.38728 8.09351 4.38728H12.334C12.5824 4.38728 12.6856 4.70511 12.4847 4.8511L9.05407 7.34361C8.96421 7.4089 8.92661 7.52462 8.96093 7.63026L10.2713 11.6632C10.3481 11.8994 10.0777 12.0959 9.87677 11.9499L6.44614 9.45737C6.35627 9.39208 6.23459 9.39208 6.14473 9.45737L2.71409 11.9499C2.51315 12.0959 2.24279 11.8994 2.31954 11.6632L3.62993 7.63026C3.66425 7.52462 3.62665 7.4089 3.53679 7.34361L0.106153 4.8511C-0.0947863 4.70511 0.00848332 4.38728 0.256858 4.38728H4.49735C4.60843 4.38728 4.70688 4.31576 4.7412 4.21012L6.05159 0.177167Z" fill="#D9D9D9"/>
</svg>
