<svg width="14" height="14" viewBox="0 0 14 14" fill="none" xmlns="http://www.w3.org/2000/svg">
<g clip-path="url(#clip0_0_448)">
<path d="M0 0.84235C0 0.376425 0.391013 0 0.874994 0H13.1249C13.6089 0 13.9999 0.376425 13.9999 0.84235C13.9999 1.30828 13.6089 1.6847 13.1249 1.6847V11.7929C13.6089 11.7929 13.9999 12.1693 13.9999 12.6353C13.9999 13.1012 13.6089 13.4776 13.1249 13.4776H8.31244V12.2141C8.31244 11.5165 7.72455 10.9506 6.99995 10.9506C6.27534 10.9506 5.68746 11.5165 5.68746 12.2141V13.4776H0.874994C0.391013 13.4776 0 13.1012 0 12.6353C0 12.1693 0.391013 11.7929 0.874994 11.7929V1.6847C0.391013 1.6847 0 1.30828 0 0.84235ZM2.62498 2.94823V3.79058C2.62498 4.02222 2.82185 4.21175 3.06248 4.21175H3.93747C4.17809 4.21175 4.37497 4.02222 4.37497 3.79058V2.94823C4.37497 2.71658 4.17809 2.52705 3.93747 2.52705H3.06248C2.82185 2.52705 2.62498 2.71658 2.62498 2.94823ZM6.56245 2.52705C6.32183 2.52705 6.12496 2.71658 6.12496 2.94823V3.79058C6.12496 4.02222 6.32183 4.21175 6.56245 4.21175H7.43745C7.67807 4.21175 7.87494 4.02222 7.87494 3.79058V2.94823C7.87494 2.71658 7.67807 2.52705 7.43745 2.52705H6.56245ZM9.62493 2.94823V3.79058C9.62493 4.02222 9.8218 4.21175 10.0624 4.21175H10.9374C11.178 4.21175 11.3749 4.02222 11.3749 3.79058V2.94823C11.3749 2.71658 11.178 2.52705 10.9374 2.52705H10.0624C9.8218 2.52705 9.62493 2.71658 9.62493 2.94823ZM3.06248 5.0541C2.82185 5.0541 2.62498 5.24363 2.62498 5.47528V6.31763C2.62498 6.54927 2.82185 6.7388 3.06248 6.7388H3.93747C4.17809 6.7388 4.37497 6.54927 4.37497 6.31763V5.47528C4.37497 5.24363 4.17809 5.0541 3.93747 5.0541H3.06248ZM6.12496 5.47528V6.31763C6.12496 6.54927 6.32183 6.7388 6.56245 6.7388H7.43745C7.67807 6.7388 7.87494 6.54927 7.87494 6.31763V5.47528C7.87494 5.24363 7.67807 5.0541 7.43745 5.0541H6.56245C6.32183 5.0541 6.12496 5.24363 6.12496 5.47528ZM10.0624 5.0541C9.8218 5.0541 9.62493 5.24363 9.62493 5.47528V6.31763C9.62493 6.54927 9.8218 6.7388 10.0624 6.7388H10.9374C11.178 6.7388 11.3749 6.54927 11.3749 6.31763V5.47528C11.3749 5.24363 11.178 5.0541 10.9374 5.0541H10.0624ZM8.96868 10.1082C9.33235 10.1082 9.63313 9.82128 9.5429 9.48171C9.25306 8.38928 8.22494 7.58115 6.99995 7.58115C5.77496 7.58115 4.74411 8.38928 4.457 9.48171C4.36676 9.81865 4.67028 10.1082 5.03121 10.1082H8.96868Z" fill="#114C5F"/>
</g>
<defs>
<clipPath id="clip0_0_448">
<rect width="13.5089" height="13.005" fill="white" transform="scale(1.03634)"/>
</clipPath>
</defs>
</svg>
