<svg width="23" height="25" viewBox="0 0 23 25" fill="none" xmlns="http://www.w3.org/2000/svg">
<g filter="url(#filter0_d_0_260)">
<path d="M6.14286 1.78125C5.84821 1.78125 5.60714 2.04844 5.60714 2.375V14.25C5.60714 14.5766 5.84821 14.8438 6.14286 14.8438H16.8571C17.1518 14.8438 17.3929 14.5766 17.3929 14.25V2.375C17.3929 2.04844 17.1518 1.78125 16.8571 1.78125H6.14286ZM4 2.375C4 1.06504 4.96094 0 6.14286 0H16.8571C18.0391 0 19 1.06504 19 2.375V14.25C19 15.56 18.0391 16.625 16.8571 16.625H6.14286C4.96094 16.625 4 15.56 4 14.25V2.375ZM15.2835 6.56836L10.9978 11.3184C10.683 11.6672 10.1741 11.6672 9.86272 11.3184L7.71987 8.94336C7.40513 8.59453 7.40513 8.03047 7.71987 7.68535C8.0346 7.34023 8.54353 7.33652 8.85491 7.68535L10.4286 9.42949L14.1451 5.30664C14.4598 4.95781 14.9688 4.95781 15.2801 5.30664C15.5915 5.65547 15.5949 6.21953 15.2801 6.56465L15.2835 6.56836Z" fill="#114C5F"/>
</g>
<defs>
<filter id="filter0_d_0_260" x="0" y="0" width="23" height="24.625" filterUnits="userSpaceOnUse" color-interpolation-filters="sRGB">
<feFlood flood-opacity="0" result="BackgroundImageFix"/>
<feColorMatrix in="SourceAlpha" type="matrix" values="0 0 0 0 0 0 0 0 0 0 0 0 0 0 0 0 0 0 127 0" result="hardAlpha"/>
<feOffset dy="4"/>
<feGaussianBlur stdDeviation="2"/>
<feComposite in2="hardAlpha" operator="out"/>
<feColorMatrix type="matrix" values="0 0 0 0 0 0 0 0 0 0 0 0 0 0 0 0 0 0 0.25 0"/>
<feBlend mode="normal" in2="BackgroundImageFix" result="effect1_dropShadow_0_260"/>
<feBlend mode="normal" in="SourceGraphic" in2="effect1_dropShadow_0_260" result="shape"/>
</filter>
</defs>
</svg>
