<svg width="24" height="26" viewBox="0 0 24 26" fill="none" xmlns="http://www.w3.org/2000/svg">
<g filter="url(#filter0_d_0_258)">
<mask id="path-1-outside-1_0_258" maskUnits="userSpaceOnUse" x="2.5" y="0" width="19" height="20" fill="black">
<rect fill="white" x="2.5" width="19" height="20"/>
<path d="M4 10C4 5.59375 7.5625 2 12 2C16.4062 2 20 5.59375 20 10C20 14.4375 16.4062 18 12 18C7.5625 18 4 14.4375 4 10ZM12 13.5C12.4062 13.5 12.75 13.1875 12.75 12.75V10.75H14.75C15.1562 10.75 15.5 10.4375 15.5 10C15.5 9.59375 15.1562 9.25 14.75 9.25H12.75V7.25C12.75 6.84375 12.4062 6.5 12 6.5C11.5625 6.5 11.25 6.84375 11.25 7.25V9.25H9.25C8.8125 9.25 8.5 9.59375 8.5 10C8.5 10.4375 8.8125 10.75 9.25 10.75H11.25V12.75C11.25 13.1875 11.5625 13.5 12 13.5Z"/>
</mask>
<path d="M4 10C4 5.59375 7.5625 2 12 2C16.4062 2 20 5.59375 20 10C20 14.4375 16.4062 18 12 18C7.5625 18 4 14.4375 4 10ZM12 13.5C12.4062 13.5 12.75 13.1875 12.75 12.75V10.75H14.75C15.1562 10.75 15.5 10.4375 15.5 10C15.5 9.59375 15.1562 9.25 14.75 9.25H12.75V7.25C12.75 6.84375 12.4062 6.5 12 6.5C11.5625 6.5 11.25 6.84375 11.25 7.25V9.25H9.25C8.8125 9.25 8.5 9.59375 8.5 10C8.5 10.4375 8.8125 10.75 9.25 10.75H11.25V12.75C11.25 13.1875 11.5625 13.5 12 13.5Z" fill="white"/>
<path d="M12.75 10.75V9.25H11.25V10.75H12.75ZM12.75 9.25H11.25V10.75H12.75V9.25ZM11.25 9.25V10.75H12.75V9.25H11.25ZM11.25 10.75H12.75V9.25H11.25V10.75ZM5.5 10C5.5 6.41836 8.39474 3.5 12 3.5V0.5C6.73026 0.5 2.5 4.76914 2.5 10H5.5ZM12 3.5C15.5778 3.5 18.5 6.42218 18.5 10H21.5C21.5 4.76532 17.2347 0.5 12 0.5V3.5ZM18.5 10C18.5 13.6053 15.5816 16.5 12 16.5V19.5C17.2309 19.5 21.5 15.2697 21.5 10H18.5ZM12 16.5C8.39093 16.5 5.5 13.6091 5.5 10H2.5C2.5 15.2659 6.73407 19.5 12 19.5V16.5ZM12 15C13.1934 15 14.25 14.0566 14.25 12.75H11.25C11.25 12.3184 11.6191 12 12 12V15ZM14.25 12.75V10.75H11.25V12.75H14.25ZM12.75 12.25H14.75V9.25H12.75V12.25ZM14.75 12.25C15.9434 12.25 17 11.3066 17 10H14C14 9.56838 14.3691 9.25 14.75 9.25V12.25ZM17 10C17 8.76532 15.9847 7.75 14.75 7.75V10.75C14.5238 10.75 14.3382 10.6548 14.2167 10.5333C14.0952 10.4118 14 10.2262 14 10H17ZM14.75 7.75H12.75V10.75H14.75V7.75ZM14.25 9.25V7.25H11.25V9.25H14.25ZM14.25 7.25C14.25 6.01532 13.2347 5 12 5V8C11.7738 8 11.5882 7.9048 11.4667 7.78332C11.3452 7.66183 11.25 7.47622 11.25 7.25H14.25ZM12 5C10.6934 5 9.75 6.05661 9.75 7.25H12.75C12.75 7.63089 12.4316 8 12 8V5ZM9.75 7.25V9.25H12.75V7.25H9.75ZM11.25 7.75H9.25V10.75H11.25V7.75ZM9.25 7.75C7.94338 7.75 7 8.80661 7 10H10C10 10.3809 9.68162 10.75 9.25 10.75V7.75ZM7 10C7 11.2659 7.98407 12.25 9.25 12.25V9.25C9.39815 9.25 9.60197 9.30877 9.7716 9.4784C9.94123 9.64803 10 9.85185 10 10H7ZM9.25 12.25H11.25V9.25H9.25V12.25ZM9.75 10.75V12.75H12.75V10.75H9.75ZM9.75 12.75C9.75 14.0159 10.7341 15 12 15V12C12.1481 12 12.352 12.0588 12.5216 12.2284C12.6912 12.398 12.75 12.6019 12.75 12.75H9.75Z" fill="#114C5F" mask="url(#path-1-outside-1_0_258)"/>
</g>
<defs>
<filter id="filter0_d_0_258" x="-1.5" y="0" width="27" height="28" filterUnits="userSpaceOnUse" color-interpolation-filters="sRGB">
<feFlood flood-opacity="0" result="BackgroundImageFix"/>
<feColorMatrix in="SourceAlpha" type="matrix" values="0 0 0 0 0 0 0 0 0 0 0 0 0 0 0 0 0 0 127 0" result="hardAlpha"/>
<feOffset dy="4"/>
<feGaussianBlur stdDeviation="2"/>
<feComposite in2="hardAlpha" operator="out"/>
<feColorMatrix type="matrix" values="0 0 0 0 0 0 0 0 0 0 0 0 0 0 0 0 0 0 0.25 0"/>
<feBlend mode="normal" in2="BackgroundImageFix" result="effect1_dropShadow_0_258"/>
<feBlend mode="normal" in="SourceGraphic" in2="effect1_dropShadow_0_258" result="shape"/>
</filter>
</defs>
</svg>
