<svg width="15" height="16" viewBox="0 0 15 16" fill="none" xmlns="http://www.w3.org/2000/svg">
<path fill-rule="evenodd" clip-rule="evenodd" d="M11.7734 13.7695C11.7461 14.4805 11.1719 15 10.4609 15H3.76172C3.05078 15 2.47656 14.4805 2.44922 13.7695L1.84766 4.5H12.375L11.7734 13.7695ZM0.833503 4.31432L1.45058 13.8229C1.50739 15.0965 2.55245 16 3.76172 16H10.4609C11.6702 16 12.7153 15.0965 12.7721 13.8229L13.3885 4.32405C13.8988 3.9948 14.25 3.42324 14.25 2.75C14.25 1.73287 13.3921 0.875 12.375 0.875H10.3334C9.99978 0.333124 9.40598 0 8.76562 0H5.45703C4.81667 0 4.22288 0.333124 3.8893 0.875H1.875C0.810362 0.875 0 1.75325 0 2.75C0 3.40748 0.3291 3.98019 0.833503 4.31432ZM1.41664 3.5C1.16457 3.3484 1 3.07271 1 2.75C1 2.28516 1.38281 1.875 1.875 1.875H4.5L4.69141 1.49219C4.82812 1.19141 5.12891 1 5.45703 1H8.76562C9.09375 1 9.39453 1.19141 9.53125 1.49219L9.75 1.875H12.375C12.8398 1.875 13.25 2.28516 13.25 2.75C13.25 3.07271 13.0737 3.3484 12.8212 3.5C12.6886 3.57961 12.5351 3.625 12.375 3.625H1.875C1.86585 3.625 1.85673 3.62487 1.84766 3.6246C1.68869 3.62 1.54187 3.57531 1.41664 3.5Z" fill="black"/>
</svg>
