<svg width="11" height="11" viewBox="0 0 11 11" fill="none" xmlns="http://www.w3.org/2000/svg">
<path d="M8.64047 0.159587C8.31102 0.0490376 7.96452 8.78193e-05 7.61747 8.78193e-05C6.85298 -0.00541215 6.11103 0.247587 5.49998 0.714534C5.45048 0.676585 5.38998 0.643035 5.33498 0.610585C5.27998 0.577035 5.18098 0.495085 5.09848 0.451086L4.88948 0.357586C4.77949 0.297086 4.66454 0.253087 4.54299 0.214037C4.53199 0.203587 4.51549 0.192037 4.49349 0.181587H4.46104C4.13599 0.0710375 3.80049 0.0105378 3.45399 8.78193e-05H3.39349C3.23949 8.78193e-05 3.08604 0.0105378 2.93149 0.0330877H2.8655C2.7005 0.0545376 2.53605 0.0930374 2.37655 0.148037C0.324508 0.819584 -0.406989 3.04707 0.214508 4.99406C0.566506 5.98901 1.13355 6.89156 1.87055 7.6335C2.94249 8.6675 4.11454 9.58049 5.37348 10.3615L5.51648 10.45L5.65398 10.367C6.90852 9.58049 8.07397 8.6675 9.13601 7.639C9.87796 6.89705 10.4445 5.98901 10.791 4.99406C11.402 3.04707 10.6705 0.819584 8.64047 0.159587Z" fill="#EC5655"/>
</svg>
