<svg width="15" height="14" viewBox="0 0 15 14" fill="none" xmlns="http://www.w3.org/2000/svg">
<g clip-path="url(#clip0_0_475)">
<path d="M0 2.55717C0 1.61687 0.840826 0.852386 1.87501 0.852386H13.1251C14.1593 0.852386 15.0001 1.61687 15.0001 2.55717V11.0811C15.0001 12.0214 14.1593 12.7859 13.1251 12.7859H1.87501C0.840826 12.7859 0 12.0214 0 11.0811V2.55717ZM1.40626 9.80249V10.6549C1.40626 10.8893 1.6172 11.0811 1.87501 11.0811H2.81252C3.07033 11.0811 3.28127 10.8893 3.28127 10.6549V9.80249C3.28127 9.56809 3.07033 9.3763 2.81252 9.3763H1.87501C1.6172 9.3763 1.40626 9.56809 1.40626 9.80249ZM12.1876 9.3763C11.9298 9.3763 11.7188 9.56809 11.7188 9.80249V10.6549C11.7188 10.8893 11.9298 11.0811 12.1876 11.0811H13.1251C13.3829 11.0811 13.5938 10.8893 13.5938 10.6549V9.80249C13.5938 9.56809 13.3829 9.3763 13.1251 9.3763H12.1876ZM1.40626 6.39293V7.24532C1.40626 7.47973 1.6172 7.67151 1.87501 7.67151H2.81252C3.07033 7.67151 3.28127 7.47973 3.28127 7.24532V6.39293C3.28127 6.15852 3.07033 5.96673 2.81252 5.96673H1.87501C1.6172 5.96673 1.40626 6.15852 1.40626 6.39293ZM12.1876 5.96673C11.9298 5.96673 11.7188 6.15852 11.7188 6.39293V7.24532C11.7188 7.47973 11.9298 7.67151 12.1876 7.67151H13.1251C13.3829 7.67151 13.5938 7.47973 13.5938 7.24532V6.39293C13.5938 6.15852 13.3829 5.96673 13.1251 5.96673H12.1876ZM1.40626 2.98336V3.83575C1.40626 4.07016 1.6172 4.26195 1.87501 4.26195H2.81252C3.07033 4.26195 3.28127 4.07016 3.28127 3.83575V2.98336C3.28127 2.74896 3.07033 2.55717 2.81252 2.55717H1.87501C1.6172 2.55717 1.40626 2.74896 1.40626 2.98336ZM12.1876 2.55717C11.9298 2.55717 11.7188 2.74896 11.7188 2.98336V3.83575C11.7188 4.07016 11.9298 4.26195 12.1876 4.26195H13.1251C13.3829 4.26195 13.5938 4.07016 13.5938 3.83575V2.98336C13.5938 2.74896 13.3829 2.55717 13.1251 2.55717H12.1876ZM4.68753 3.40956V5.11434C4.68753 5.58582 5.10648 5.96673 5.62504 5.96673H9.37507C9.89363 5.96673 10.3126 5.58582 10.3126 5.11434V3.40956C10.3126 2.93808 9.89363 2.55717 9.37507 2.55717H5.62504C5.10648 2.55717 4.68753 2.93808 4.68753 3.40956ZM5.62504 7.67151C5.10648 7.67151 4.68753 8.05243 4.68753 8.52391V10.2287C4.68753 10.7002 5.10648 11.0811 5.62504 11.0811H9.37507C9.89363 11.0811 10.3126 10.7002 10.3126 10.2287V8.52391C10.3126 8.05243 9.89363 7.67151 9.37507 7.67151H5.62504Z" fill="#114C5F"/>
</g>
<defs>
<clipPath id="clip0_0_475">
<rect width="14.3036" height="13.005" fill="white" transform="scale(1.0487)"/>
</clipPath>
</defs>
</svg>
