<svg width="20" height="20" viewBox="0 0 20 20" fill="none" xmlns="http://www.w3.org/2000/svg">
<mask id="path-1-outside-1_122_1471" maskUnits="userSpaceOnUse" x="-0.5" y="2" width="21" height="18" fill="black">
<rect fill="white" x="-0.5" y="2" width="21" height="18"/>
<path d="M1 6.6875C1 6.28125 1.25 5.90625 1.625 5.75L6 4V16L1.65625 17.9688C1.34375 18.125 1 17.875 1 17.5V6.6875ZM7 16V4L13 6V18L7 16ZM18.3125 4.0625C18.625 3.90625 19 4.15625 19 4.53125V15.3438C19 15.75 18.7188 16.125 18.3438 16.2812L14 18V6L18.3125 4.0625Z"/>
</mask>
<path d="M1 6.6875C1 6.28125 1.25 5.90625 1.625 5.75L6 4V16L1.65625 17.9688C1.34375 18.125 1 17.875 1 17.5V6.6875ZM7 16V4L13 6V18L7 16ZM18.3125 4.0625C18.625 3.90625 19 4.15625 19 4.53125V15.3438C19 15.75 18.7188 16.125 18.3438 16.2812L14 18V6L18.3125 4.0625Z" fill="white"/>
<path d="M1.625 5.75L1.25361 4.82152L1.24698 4.82418L1.24038 4.82692L1.625 5.75ZM6 4H7V2.52297L5.62861 3.07152L6 4ZM6 16L6.41282 16.9108L7 16.6447V16H6ZM1.65625 17.9688L1.24343 17.0579L1.22608 17.0658L1.20904 17.0743L1.65625 17.9688ZM7 16H6V16.7208L6.68377 16.9487L7 16ZM7 4L7.31623 3.05132L6 2.61257V4H7ZM13 6H14V5.27924L13.3162 5.05132L13 6ZM13 18L12.6838 18.9487L14 19.3874V18H13ZM18.3125 4.0625L18.7223 4.97467L18.7412 4.96619L18.7597 4.95693L18.3125 4.0625ZM18.3438 16.2812L18.7117 17.2111L18.7201 17.2078L18.7284 17.2043L18.3438 16.2812ZM14 18H13V19.4711L14.3679 18.9299L14 18ZM14 6L13.5902 5.08783L13 5.35299V6H14ZM2 6.6875C2 6.69 1.99942 6.68645 2.00393 6.6797C2.00843 6.67295 2.01192 6.67211 2.00962 6.67308L1.24038 4.82692C0.492738 5.13844 0 5.87755 0 6.6875H2ZM1.99639 6.67848L6.37139 4.92848L5.62861 3.07152L1.25361 4.82152L1.99639 6.67848ZM5 4V16H7V4H5ZM5.58718 15.0892L1.24343 17.0579L2.06907 18.8796L6.41282 16.9108L5.58718 15.0892ZM1.20904 17.0743C1.40715 16.9753 1.63855 17.0094 1.79457 17.1216C1.94003 17.2261 2 17.3769 2 17.5H0C0 17.9981 0.23184 18.4614 0.627301 18.7456C1.03333 19.0374 1.59285 19.1185 2.10346 18.8632L1.20904 17.0743ZM2 17.5V6.6875H0V17.5H2ZM8 16V4H6V16H8ZM6.68377 4.94868L12.6838 6.94868L13.3162 5.05132L7.31623 3.05132L6.68377 4.94868ZM12 6V18H14V6H12ZM13.3162 17.0513L7.31623 15.0513L6.68377 16.9487L12.6838 18.9487L13.3162 17.0513ZM18.7597 4.95693C18.5567 5.05844 18.3445 5.01482 18.2131 4.92594C18.0829 4.83786 18 4.68988 18 4.53125H20C20 3.51862 18.9349 2.63327 17.8653 3.16807L18.7597 4.95693ZM18 4.53125V15.3438H20V4.53125H18ZM18 15.3438C18 15.3142 18.0097 15.3097 17.9988 15.325C17.9939 15.3318 17.987 15.3393 17.9786 15.346C17.9702 15.3528 17.9632 15.3565 17.9591 15.3582L18.7284 17.2043C19.4272 16.9132 20 16.2041 20 15.3438H18ZM17.9758 15.3514L13.6321 17.0701L14.3679 18.9299L18.7117 17.2111L17.9758 15.3514ZM15 18V6H13V18H15ZM14.4098 6.91217L18.7223 4.97467L17.9027 3.15033L13.5902 5.08783L14.4098 6.91217Z" fill="#B8B8B8" mask="url(#path-1-outside-1_122_1471)"/>
</svg>
