<svg width="19" height="18" viewBox="0 0 19 18" fill="none" xmlns="http://www.w3.org/2000/svg">
<path d="M18.7454 9.39351L12.4089 16.9443C11.8432 17.6184 10.8625 17.169 10.8625 16.1802V11.8655H5.733C5.20496 11.8655 4.82779 11.416 4.82779 10.7868V6.47208C4.82779 5.8878 5.20496 5.3934 5.733 5.3934H10.8625V1.07868C10.8625 0.134835 11.8055 -0.35956 12.4089 0.314615L18.7454 7.86538C19.0849 8.31483 19.0849 8.989 18.7454 9.39351ZM7.24169 16.7195C7.24169 17.0342 7.01538 17.2589 6.78908 17.2589H3.62084C1.62184 17.2589 0 15.3263 0 12.9442V4.31472C0 1.93264 1.62184 0 3.62084 0H6.78908C7.01538 0 7.24169 0.26967 7.24169 0.53934V2.33714C7.24169 2.65176 7.01538 2.87648 6.78908 2.87648H3.62084C2.94194 2.87648 2.4139 3.55066 2.4139 4.31472V12.9442C2.4139 13.7532 2.94194 14.3824 3.62084 14.3824H6.78908C7.01538 14.3824 7.24169 14.6521 7.24169 14.9217V16.7195Z" fill="black"/>
</svg>
