<svg width="18" height="17" viewBox="0 0 18 17" fill="none" xmlns="http://www.w3.org/2000/svg">
<path fill-rule="evenodd" clip-rule="evenodd" d="M4.78125 1.74591C3.27849 1.74591 1.6875 3.10098 1.6875 5.23772C1.6875 7.73983 3.46546 10.0608 5.47279 11.8511C6.45225 12.7248 7.43582 13.427 8.17646 13.9114C8.50958 14.1293 8.79179 14.3019 9 14.4252C9.20821 14.3019 9.49042 14.1293 9.82355 13.9114C10.5642 13.427 11.5478 12.7248 12.5272 11.8511C14.5345 10.0608 16.3125 7.73983 16.3125 5.23772C16.3125 3.10098 14.7215 1.74591 13.2188 1.74591C11.6739 1.74591 10.2839 2.89333 9.81128 4.60459C9.70779 4.97935 9.37672 5.23772 9 5.23772C8.62328 5.23772 8.29221 4.97935 8.18872 4.60459C7.71614 2.89333 6.32609 1.74591 4.78125 1.74591ZM9 15.4222C8.61236 16.1976 8.61213 16.1975 8.61188 16.1973L8.60928 16.1959L8.60322 16.1926L8.58243 16.1813C8.56477 16.1716 8.53958 16.1578 8.50736 16.1398C8.44294 16.1038 8.35036 16.0512 8.23365 15.9829C8.00033 15.8461 7.66992 15.6457 7.27472 15.3872C6.48605 14.8713 5.43057 14.1186 4.37096 13.1736C2.30016 11.3265 0 8.55531 0 5.23772C0 2.13675 2.34651 0 4.78125 0C6.52203 0 8.047 0.932908 9 2.3511C9.953 0.932908 11.4779 0 13.2188 0C15.6535 0 18 2.13675 18 5.23772C18 8.55531 15.6998 11.3265 13.629 13.1736C12.5694 14.1186 11.5139 14.8713 10.7253 15.3872C10.3301 15.6457 9.99967 15.8461 9.76635 15.9829C9.64964 16.0512 9.55707 16.1038 9.49264 16.1398C9.46042 16.1578 9.43523 16.1716 9.41757 16.1813L9.39678 16.1926L9.39072 16.1959L9.38814 16.1973C9.38787 16.1975 9.38764 16.1976 9 15.4222ZM9 15.4222L9.38814 16.1973C9.145 16.3274 8.855 16.3274 8.61188 16.1973L9 15.4222Z" fill="black"/>
</svg>
