<svg width="13" height="12" viewBox="0 0 13 12" fill="none" xmlns="http://www.w3.org/2000/svg">
<path d="M0 3.95785C0 3.08465 0.728711 2.37471 1.625 2.37471C1.6377 2.37471 1.65293 2.37471 1.66562 2.37471C1.85352 1.47182 2.67363 0.791569 3.65625 0.791569C4.03711 0.791569 4.39258 0.892989 4.69473 1.06862C5.03242 0.435363 5.71543 0 6.5 0C7.28457 0 7.96758 0.435363 8.30527 1.06862C8.60742 0.892989 8.96289 0.791569 9.34375 0.791569C10.3264 0.791569 11.1465 1.47182 11.3344 2.37471C11.3471 2.37471 11.3623 2.37471 11.375 2.37471C12.2713 2.37471 13 3.08465 13 3.95785C13 4.24726 12.9213 4.51689 12.7816 4.74941H0.218359C0.0787109 4.51689 0 4.24726 0 3.95785ZM0 6.21876C0 5.84524 0.312305 5.54098 0.695703 5.54098H12.3043C12.6877 5.54098 13 5.84524 13 6.21876C13 7.96269 11.8727 9.45183 10.2908 10.0307L10.2451 10.3893C10.1943 10.7851 9.84902 11.082 9.4377 11.082H3.55977C3.15098 11.082 2.80313 10.7851 2.75234 10.3893L2.70664 10.0331C1.12734 9.45183 0 7.96269 0 6.21876Z" fill="#114C5F"/>
</svg>
