<svg width="18" height="18" viewBox="0 0 18 18" fill="none" xmlns="http://www.w3.org/2000/svg">
<path d="M17.096 5.96096C17.9713 6.09988 18.3079 7.21131 17.6683 7.87122L14.1336 11.4486L14.9752 16.4848C15.1099 17.3878 14.1673 18.0824 13.3931 17.6657L9.01682 15.2691L4.60692 17.6657C3.83266 18.0824 2.89008 17.3878 3.02474 16.4848L3.86632 11.4486L0.331668 7.87122C-0.307936 7.21131 0.0286981 6.09988 0.903946 5.96096L5.85246 5.23158L8.04058 0.612221C8.44454 -0.221347 9.58909 -0.186615 9.95939 0.612221L12.1812 5.23158L17.096 5.96096ZM12.3832 10.8582L15.7832 7.45443L11.1039 6.75979L9.01682 2.38356L6.89602 6.75979L2.21682 7.45443L5.61682 10.8582L4.8089 15.6512L9.01682 13.3936L13.1911 15.6512L12.3832 10.8582Z" fill="black"/>
</svg>
