<svg width="24" height="26" viewBox="0 0 24 26" fill="none" xmlns="http://www.w3.org/2000/svg">
<path d="M16.5803 17.3141C17.0241 17.3141 17.3839 16.9425 17.3839 16.4841C17.3839 16.0257 17.0241 15.6541 16.5803 15.6541C16.1365 15.6541 15.7767 16.0257 15.7767 16.4841C15.7767 16.9425 16.1365 17.3141 16.5803 17.3141Z" fill="#273431"/>
<path d="M20.1964 17.1481C20.6402 17.1481 21 16.7765 21 16.3181V13.247C21 11.4163 19.5581 9.92696 17.7857 9.92696H16.8199V6.99975C16.8199 4.31171 14.657 2.12483 11.9985 2.12483C9.33998 2.12483 7.17708 4.31171 7.17708 6.99975V9.92696H6.21429C4.44193 9.92696 3 11.4163 3 13.247V20.0531C3 21.8838 4.44193 23.3732 6.21429 23.3732H17.7857C19.5581 23.3732 21 21.8838 21 20.0531C21 19.5947 20.6402 19.2231 20.1964 19.2231C19.7526 19.2231 19.3929 19.5947 19.3929 20.0531C19.3929 20.9685 18.6719 21.7131 17.7857 21.7131H6.21429C5.32811 21.7131 4.60714 20.9685 4.60714 20.0531V13.247C4.60714 12.3317 5.32811 11.587 6.21429 11.587H17.7857C18.6719 11.587 19.3929 12.3317 19.3929 13.247V16.3181C19.3929 16.7765 19.7526 17.1481 20.1964 17.1481ZM15.2128 9.92696H8.78423V6.99975C8.78423 5.22705 10.2262 3.78486 11.9985 3.78486C13.7709 3.78486 15.2128 5.22705 15.2128 6.99975V9.92696Z" fill="#273431"/>
<path d="M10.5136 17.3141C10.9574 17.3141 11.3171 16.9425 11.3171 16.4841C11.3171 16.0257 10.9574 15.6541 10.5136 15.6541C10.0698 15.6541 9.70999 16.0257 9.70999 16.4841C9.70999 16.9425 10.0698 17.3141 10.5136 17.3141Z" fill="#273431"/>
<path d="M7.49983 17.3141C7.94363 17.3141 8.3034 16.9425 8.3034 16.4841C8.3034 16.0257 7.94363 15.6541 7.49983 15.6541C7.05603 15.6541 6.69626 16.0257 6.69626 16.4841C6.69626 16.9425 7.05603 17.3141 7.49983 17.3141Z" fill="#273431"/>
<path d="M13.5268 17.3141C13.9706 17.3141 14.3304 16.9425 14.3304 16.4841C14.3304 16.0257 13.9706 15.6541 13.5268 15.6541C13.083 15.6541 12.7233 16.0257 12.7233 16.4841C12.7233 16.9425 13.083 17.3141 13.5268 17.3141Z" fill="#273431"/>
</svg>
