<svg width="23" height="23" viewBox="0 0 23 23" fill="none" xmlns="http://www.w3.org/2000/svg">
<path d="M20.7383 12.1029C20.6 11.9918 20.4323 11.9207 20.2544 11.8976C20.0765 11.8746 19.8956 11.9005 19.7321 11.9725C18.7187 12.423 17.6169 12.6549 16.5025 12.6521C14.441 12.6497 12.4641 11.8556 11.0028 10.443C9.54147 9.03037 8.71432 7.11378 8.70167 5.11112C8.70604 4.48348 8.78646 3.85852 8.94126 3.24915C8.97411 3.08672 8.96179 2.91873 8.90556 2.76247C8.84934 2.60622 8.75126 2.46735 8.62141 2.36017C8.49156 2.253 8.33464 2.18139 8.16683 2.15273C7.99901 2.12407 7.82636 2.1394 7.66667 2.19713C6.16432 2.85339 4.85835 3.86989 3.87144 5.15114C2.88454 6.43239 2.2491 7.93633 2.02482 9.52167C1.80054 11.107 1.99478 12.7217 2.5893 14.2141C3.18382 15.7065 4.15909 17.0276 5.4235 18.0532C6.68792 19.0789 8.19996 19.7755 9.8176 20.0775C11.4352 20.3796 13.1054 20.2772 14.6711 19.78C16.2368 19.2828 17.6467 18.4071 18.7684 17.2352C19.8901 16.0632 20.6867 14.6335 21.0833 13.0804C21.1317 12.9026 21.1247 12.7148 21.0633 12.5409C21.0019 12.3669 20.8888 12.2145 20.7383 12.1029ZM11.6342 18.3312C10.0259 18.3202 8.46037 17.8265 7.15204 16.9177C5.84372 16.0089 4.85652 14.7295 4.32562 13.2546C3.79472 11.7797 3.74607 10.1815 4.18633 8.67868C4.6266 7.17589 5.53425 5.84204 6.78501 4.85976V5.11112C6.78755 7.61407 7.81216 10.0138 9.634 11.7837C11.4558 13.5535 13.926 14.5489 16.5025 14.5514C17.179 14.5538 17.8537 14.4851 18.515 14.3465C17.8537 15.562 16.8633 16.5789 15.6507 17.2877C14.4381 17.9964 13.0493 18.3701 11.6342 18.3684V18.3312Z" fill="black"/>
</svg>
