<svg width="14" height="17" viewBox="0 0 14 17" fill="none" xmlns="http://www.w3.org/2000/svg">
<path d="M6.79142 0C3.03916 0 0 0.447369 0 3.57895V12.079C0 13.8058 1.33282 15.2105 2.97124 15.2105L1.69785 16.5526V17H11.885V16.5526L10.6116 15.2105C12.25 15.2105 13.5828 13.8058 13.5828 12.079V3.57895C13.5828 0.447369 10.5437 0 6.79142 0ZM2.97124 13.4211C2.26664 13.4211 1.69785 12.8216 1.69785 12.079C1.69785 11.3363 2.26664 10.7368 2.97124 10.7368C3.67585 10.7368 4.24464 11.3363 4.24464 12.079C4.24464 12.8216 3.67585 13.4211 2.97124 13.4211ZM5.94249 8.05263H1.69785V3.57895H5.94249V8.05263ZM10.6116 13.4211C9.90698 13.4211 9.3382 12.8216 9.3382 12.079C9.3382 11.3363 9.90698 10.7368 10.6116 10.7368C11.3162 10.7368 11.885 11.3363 11.885 12.079C11.885 12.8216 11.3162 13.4211 10.6116 13.4211ZM11.885 8.05263H7.64034V3.57895H11.885V8.05263Z" fill="#37474F"/>
</svg>
