<svg width="27" height="24" viewBox="0 0 27 24" fill="none" xmlns="http://www.w3.org/2000/svg">
<g filter="url(#filter0_d_0_261)">
<path d="M12.3793 15.5646L12.2865 15.4804L5.78496 9.52724C4.6457 8.48442 4 7.02082 4 5.4877V5.36695C4 2.79102 5.85547 0.580988 8.42344 0.0980001C9.88555 -0.180084 11.3811 0.152885 12.5723 0.979818C12.9062 1.21399 13.218 1.48476 13.5 1.79577C13.6559 1.62014 13.8229 1.45915 14.001 1.30913C14.1383 1.19204 14.2793 1.08227 14.4277 0.979818C15.6189 0.152885 17.1145 -0.180084 18.5766 0.0943412C21.1445 0.577329 23 2.79102 23 5.36695V5.4877C23 7.02082 22.3543 8.48442 21.215 9.52724L14.7135 15.4804L14.6207 15.5646C14.3164 15.8427 13.9156 16 13.5 16C13.0844 16 12.6836 15.8463 12.3793 15.5646ZM12.8729 3.7387C12.858 3.72772 12.8469 3.71309 12.8357 3.69845L12.1752 2.96665L12.1715 2.96299C11.3143 2.01531 10.0191 1.58355 8.75742 1.82139C7.02813 2.14704 5.78125 3.63259 5.78125 5.36695V5.4877C5.78125 6.53052 6.22285 7.52942 6.99844 8.23927L13.5 14.1925L20.0016 8.23927C20.7771 7.52942 21.2188 6.53052 21.2188 5.4877V5.36695C21.2188 3.63625 19.9719 2.14704 18.2463 1.82139C16.9846 1.58355 15.6857 2.01897 14.8322 2.96299C14.8322 2.96299 14.8322 2.96299 14.8285 2.96665C14.8248 2.97031 14.8285 2.96665 14.8248 2.97031L14.1643 3.70211C14.1531 3.71675 14.1383 3.72773 14.1271 3.74236C13.9602 3.90702 13.7338 3.99849 13.5 3.99849C13.2662 3.99849 13.0398 3.90702 12.8729 3.74236V3.7387Z" fill="#114C5F"/>
</g>
<defs>
<filter id="filter0_d_0_261" x="0" y="0" width="27" height="24" filterUnits="userSpaceOnUse" color-interpolation-filters="sRGB">
<feFlood flood-opacity="0" result="BackgroundImageFix"/>
<feColorMatrix in="SourceAlpha" type="matrix" values="0 0 0 0 0 0 0 0 0 0 0 0 0 0 0 0 0 0 127 0" result="hardAlpha"/>
<feOffset dy="4"/>
<feGaussianBlur stdDeviation="2"/>
<feComposite in2="hardAlpha" operator="out"/>
<feColorMatrix type="matrix" values="0 0 0 0 0 0 0 0 0 0 0 0 0 0 0 0 0 0 0.25 0"/>
<feBlend mode="normal" in2="BackgroundImageFix" result="effect1_dropShadow_0_261"/>
<feBlend mode="normal" in="SourceGraphic" in2="effect1_dropShadow_0_261" result="shape"/>
</filter>
</defs>
</svg>
