<svg width="23" height="24" viewBox="0 0 23 24" fill="none" xmlns="http://www.w3.org/2000/svg">
<g filter="url(#filter0_d_236_1526)">
<path fill-rule="evenodd" clip-rule="evenodd" d="M15.7734 13.7695C15.7461 14.4805 15.1719 15 14.4609 15H7.76172C7.05078 15 6.47656 14.4805 6.44922 13.7695L5.84766 4.5H16.375L15.7734 13.7695ZM4.8335 4.31432L5.45058 13.8229C5.50739 15.0965 6.55245 16 7.76172 16H14.4609C15.6702 16 16.7153 15.0965 16.7721 13.8229L17.3885 4.32405C17.8988 3.9948 18.25 3.42324 18.25 2.75C18.25 1.73287 17.3921 0.875 16.375 0.875H14.3334C13.9998 0.333124 13.406 0 12.7656 0H9.45703C8.81667 0 8.22288 0.333124 7.8893 0.875H5.875C4.81036 0.875 4 1.75325 4 2.75C4 3.40748 4.3291 3.98019 4.8335 4.31432ZM5.41664 3.5C5.16457 3.3484 5 3.07271 5 2.75C5 2.28516 5.38281 1.875 5.875 1.875H8.5L8.69141 1.49219C8.82812 1.19141 9.12891 1 9.45703 1H12.7656C13.0938 1 13.3945 1.19141 13.5312 1.49219L13.75 1.875H16.375C16.8398 1.875 17.25 2.28516 17.25 2.75C17.25 3.07271 17.0737 3.3484 16.8212 3.5C16.6886 3.57961 16.5351 3.625 16.375 3.625H5.875C5.86585 3.625 5.85673 3.62487 5.84766 3.6246C5.68869 3.62 5.54187 3.57531 5.41664 3.5Z" fill="black"/>
</g>
<defs>
<filter id="filter0_d_236_1526" x="0" y="0" width="22.25" height="24" filterUnits="userSpaceOnUse" color-interpolation-filters="sRGB">
<feFlood flood-opacity="0" result="BackgroundImageFix"/>
<feColorMatrix in="SourceAlpha" type="matrix" values="0 0 0 0 0 0 0 0 0 0 0 0 0 0 0 0 0 0 127 0" result="hardAlpha"/>
<feOffset dy="4"/>
<feGaussianBlur stdDeviation="2"/>
<feComposite in2="hardAlpha" operator="out"/>
<feColorMatrix type="matrix" values="0 0 0 0 0 0 0 0 0 0 0 0 0 0 0 0 0 0 0.25 0"/>
<feBlend mode="normal" in2="BackgroundImageFix" result="effect1_dropShadow_236_1526"/>
<feBlend mode="normal" in="SourceGraphic" in2="effect1_dropShadow_236_1526" result="shape"/>
</filter>
</defs>
</svg>
