<svg width="60" height="12" viewBox="0 0 60 12" fill="none" xmlns="http://www.w3.org/2000/svg">
<g clip-path="url(#clip0_236_1514)">
<path d="M10.642 4.13792L7.66664 3.7055L6.33656 1.00901C6.30024 0.935185 6.24047 0.875419 6.16664 0.839091C5.98149 0.747685 5.75649 0.823857 5.66391 1.00901L4.33383 3.7055L1.35844 4.13792C1.27641 4.14964 1.20141 4.18831 1.14399 4.2469C1.07457 4.31826 1.03631 4.41425 1.03763 4.51379C1.03895 4.61333 1.07973 4.70828 1.15102 4.77776L3.30375 6.87659L2.79516 9.84026C2.78323 9.9092 2.79086 9.98011 2.81718 10.0449C2.8435 10.1098 2.88746 10.1659 2.94407 10.207C3.00068 10.2481 3.06767 10.2726 3.13746 10.2776C3.20725 10.2825 3.27704 10.2679 3.33891 10.2352L6.00024 8.83597L8.66156 10.2352C8.73422 10.2739 8.8186 10.2867 8.89946 10.2727C9.10336 10.2375 9.24047 10.0442 9.20531 9.84026L8.69672 6.87659L10.8495 4.77776C10.908 4.72034 10.9467 4.64534 10.9584 4.56331C10.9901 4.35823 10.8471 4.16839 10.642 4.13792Z" fill="#FFC531"/>
<path d="M22.642 4.13792L19.6666 3.7055L18.3366 1.00901C18.3002 0.935185 18.2405 0.875419 18.1666 0.839091C17.9815 0.747685 17.7565 0.823857 17.6639 1.00901L16.3338 3.7055L13.3584 4.13792C13.2764 4.14964 13.2014 4.18831 13.144 4.2469C13.0746 4.31826 13.0363 4.41425 13.0376 4.51379C13.0389 4.61333 13.0797 4.70828 13.151 4.77776L15.3038 6.87659L14.7952 9.84026C14.7832 9.9092 14.7909 9.98011 14.8172 10.0449C14.8435 10.1098 14.8875 10.1659 14.9441 10.207C15.0007 10.2481 15.0677 10.2726 15.1375 10.2776C15.2072 10.2825 15.277 10.2679 15.3389 10.2352L18.0002 8.83597L20.6616 10.2352C20.7342 10.2739 20.8186 10.2867 20.8995 10.2727C21.1034 10.2375 21.2405 10.0442 21.2053 9.84026L20.6967 6.87659L22.8495 4.77776C22.908 4.72034 22.9467 4.64534 22.9584 4.56331C22.9901 4.35823 22.8471 4.16839 22.642 4.13792Z" fill="#FFC531"/>
<path d="M34.642 4.13792L31.6666 3.7055L30.3366 1.00901C30.3002 0.935185 30.2405 0.875419 30.1666 0.839091C29.9815 0.747685 29.7565 0.823857 29.6639 1.00901L28.3338 3.7055L25.3584 4.13792C25.2764 4.14964 25.2014 4.18831 25.144 4.2469C25.0746 4.31825 25.0363 4.41425 25.0376 4.51379C25.0389 4.61333 25.0797 4.70828 25.151 4.77776L27.3038 6.87659L26.7952 9.84026C26.7832 9.9092 26.7909 9.98011 26.8172 10.0449C26.8435 10.1098 26.8875 10.1659 26.9441 10.207C27.0007 10.2481 27.0677 10.2726 27.1375 10.2776C27.2072 10.2825 27.277 10.2679 27.3389 10.2352L30.0002 8.83597L32.6616 10.2352C32.7342 10.2739 32.8186 10.2867 32.8995 10.2727C33.1034 10.2375 33.2405 10.0442 33.2053 9.84026L32.6967 6.87659L34.8495 4.77776C34.908 4.72034 34.9467 4.64534 34.9584 4.56331C34.9901 4.35823 34.8471 4.16839 34.642 4.13792Z" fill="#FFC531"/>
<path d="M46.642 4.13792L43.6666 3.7055L42.3366 1.00901C42.3002 0.935185 42.2405 0.875419 42.1666 0.839091C41.9815 0.747685 41.7565 0.823857 41.6639 1.00901L40.3338 3.7055L37.3584 4.13792C37.2764 4.14964 37.2014 4.18831 37.144 4.2469C37.0746 4.31826 37.0363 4.41425 37.0376 4.51379C37.0389 4.61333 37.0797 4.70828 37.151 4.77776L39.3038 6.87659L38.7952 9.84026C38.7832 9.9092 38.7909 9.98011 38.8172 10.0449C38.8435 10.1098 38.8875 10.1659 38.9441 10.207C39.0007 10.2481 39.0677 10.2726 39.1375 10.2776C39.2072 10.2825 39.277 10.2679 39.3389 10.2352L42.0002 8.83597L44.6616 10.2352C44.7342 10.2739 44.8186 10.2867 44.8995 10.2727C45.1034 10.2375 45.2405 10.0442 45.2053 9.84026L44.6967 6.87659L46.8495 4.77776C46.908 4.72034 46.9467 4.64534 46.9584 4.56331C46.9901 4.35823 46.8471 4.16839 46.642 4.13792Z" fill="#FFC531"/>
<path d="M58.642 4.13792L55.6666 3.7055L54.3366 1.00901C54.3002 0.935185 54.2405 0.875419 54.1666 0.839091C53.9815 0.747685 53.7565 0.823857 53.6639 1.00901L52.3338 3.7055L49.3584 4.13792C49.2764 4.14964 49.2014 4.18831 49.144 4.2469C49.0746 4.31826 49.0363 4.41425 49.0376 4.51379C49.0389 4.61333 49.0797 4.70828 49.151 4.77776L51.3038 6.87659L50.7952 9.84026C50.7832 9.9092 50.7909 9.98011 50.8172 10.0449C50.8435 10.1098 50.8875 10.1659 50.9441 10.207C51.0007 10.2481 51.0677 10.2726 51.1375 10.2776C51.2072 10.2825 51.277 10.2679 51.3389 10.2352L54.0002 8.83597L56.6616 10.2352C56.7342 10.2739 56.8186 10.2867 56.8995 10.2727C57.1034 10.2375 57.2405 10.0442 57.2053 9.84026L56.6967 6.87659L58.8495 4.77776C58.908 4.72034 58.9467 4.64534 58.9584 4.56331C58.9901 4.35823 58.8471 4.16839 58.642 4.13792Z" fill="#FFC531"/>
</g>
<defs>
<clipPath id="clip0_236_1514">
<rect width="60" height="12" fill="white"/>
</clipPath>
</defs>
</svg>
