<svg width="15" height="14" viewBox="0 0 15 14" fill="none" xmlns="http://www.w3.org/2000/svg">
<path d="M7.13219 0.0647771L0.570463 2.50344C0.160355 2.65586 -0.0681339 3.0369 0.0226757 3.41286C0.113485 3.78883 0.4943 4.06318 0.93956 4.06318V4.2664C0.93956 4.60426 1.253 4.87607 1.6426 4.87607H13.36C13.7496 4.87607 14.063 4.60426 14.063 4.2664V4.06318C14.5083 4.06318 14.892 3.79137 14.9799 3.41286C15.0678 3.03436 14.8393 2.65332 14.4321 2.50344L7.87039 0.0647771C7.63604 -0.0215924 7.36654 -0.0215924 7.13219 0.0647771ZM3.75173 5.68895H1.87695V10.6755C1.85937 10.6831 1.8418 10.6933 1.82422 10.7035L0.418137 11.5164C0.0754039 11.7145 -0.0798513 12.0854 0.0402518 12.4283C0.160355 12.7713 0.526523 13.005 0.93956 13.005H14.063C14.4761 13.005 14.8393 12.7713 14.9594 12.4283C15.0795 12.0854 14.9272 11.7145 14.5815 11.5164L13.1754 10.7035C13.1579 10.6933 13.1403 10.6857 13.1227 10.6755V5.68895H11.2508V10.5663H10.0791V5.68895H8.20433V10.5663H6.79825V5.68895H4.92347V10.5663H3.75173V5.68895ZM7.50129 1.62451C7.7499 1.62451 7.98833 1.71015 8.16412 1.8626C8.33992 2.01504 8.43868 2.22181 8.43868 2.4374C8.43868 2.65299 8.33992 2.85975 8.16412 3.0122C7.98833 3.16464 7.7499 3.25029 7.50129 3.25029C7.25268 3.25029 7.01425 3.16464 6.83845 3.0122C6.66266 2.85975 6.5639 2.65299 6.5639 2.4374C6.5639 2.22181 6.66266 2.01504 6.83845 1.8626C7.01425 1.71015 7.25268 1.62451 7.50129 1.62451Z" fill="#114C5F"/>
</svg>
