<svg width="23" height="23" viewBox="0 0 23 23" fill="none" xmlns="http://www.w3.org/2000/svg">
<mask id="path-1-outside-1_0_237" maskUnits="userSpaceOnUse" x="-1.4375" y="-1.43749" width="25.875" height="25.875" fill="black">
<rect fill="white" x="-1.4375" y="-1.43749" width="25.875" height="25.875"/>
<path d="M5.74999 17.25C2.583 14.083 2.56054 8.93946 5.74999 5.75001C8.91698 2.58302 14.083 2.58302 17.25 5.75001C20.4394 8.93946 20.417 14.083 17.25 17.25C14.0605 20.4394 8.93944 20.4394 5.74999 17.25ZM14.0156 14.0156C14.3076 13.7236 14.3301 13.252 14.0156 12.9375L12.5781 11.5L14.0156 10.0625C14.3076 9.77051 14.3301 9.29883 14.0156 8.98438C13.7236 8.69239 13.2295 8.69239 12.9375 8.98438L11.5 10.4219L10.0625 8.98438C9.7705 8.69239 9.27636 8.69239 8.98437 8.98438C8.66991 9.29883 8.69237 9.77051 8.98437 10.0625L10.4219 11.5L8.98437 12.9375C8.66991 13.252 8.69237 13.7236 8.98437 14.0156C9.29882 14.3301 9.74804 14.3301 10.0625 14.0156L11.5 12.5781L12.9375 14.0156C13.2519 14.3301 13.7012 14.3301 14.0156 14.0156Z"/>
</mask>
<path d="M5.74999 17.25C2.583 14.083 2.56054 8.93946 5.74999 5.75001C8.91698 2.58302 14.083 2.58302 17.25 5.75001C20.4394 8.93946 20.417 14.083 17.25 17.25C14.0605 20.4394 8.93944 20.4394 5.74999 17.25ZM14.0156 14.0156C14.3076 13.7236 14.3301 13.252 14.0156 12.9375L12.5781 11.5L14.0156 10.0625C14.3076 9.77051 14.3301 9.29883 14.0156 8.98438C13.7236 8.69239 13.2295 8.69239 12.9375 8.98438L11.5 10.4219L10.0625 8.98438C9.7705 8.69239 9.27636 8.69239 8.98437 8.98438C8.66991 9.29883 8.69237 9.77051 8.98437 10.0625L10.4219 11.5L8.98437 12.9375C8.66991 13.252 8.69237 13.7236 8.98437 14.0156C9.29882 14.3301 9.74804 14.3301 10.0625 14.0156L11.5 12.5781L12.9375 14.0156C13.2519 14.3301 13.7012 14.3301 14.0156 14.0156Z" fill="#114C5F"/>
<path d="M12.5781 11.5L11.8594 10.7813L11.1406 11.5L11.8594 12.2187L12.5781 11.5ZM11.5 10.4219L10.7812 11.1406L11.5 11.8594L12.2187 11.1406L11.5 10.4219ZM10.4219 11.5L11.1406 12.2187L11.8594 11.5L11.1406 10.7813L10.4219 11.5ZM11.5 12.5781L12.2187 11.8594L11.5 11.1406L10.7812 11.8594L11.5 12.5781ZM6.46874 16.5312C3.69688 13.7594 3.67808 9.25942 6.46874 6.46876L5.03124 5.03126C1.44301 8.61949 1.46913 14.4066 5.03124 17.9687L6.46874 16.5312ZM6.46874 6.46876C9.23878 3.69872 13.7612 3.69872 16.5312 6.46876L17.9687 5.03126C14.4048 1.46731 8.59519 1.46731 5.03124 5.03126L6.46874 6.46876ZM16.5312 6.46876C19.3219 9.25942 19.3031 13.7594 16.5312 16.5312L17.9687 17.9687C21.5308 14.4066 21.557 8.61949 17.9687 5.03126L16.5312 6.46876ZM16.5312 16.5312C13.7387 19.3237 9.26124 19.3237 6.46874 16.5312L5.03124 17.9687C8.61765 21.5551 14.3823 21.5551 17.9687 17.9687L16.5312 16.5312ZM14.7344 14.7344C15.4035 14.0652 15.4653 12.9497 14.7344 12.2187L13.2969 13.6562C13.2581 13.6175 13.2255 13.5487 13.2267 13.4703C13.2277 13.3978 13.2571 13.3367 13.2969 13.2969L14.7344 14.7344ZM14.7344 12.2187L13.2969 10.7813L11.8594 12.2187L13.2969 13.6562L14.7344 12.2187ZM13.2969 12.2187L14.7344 10.7813L13.2969 9.34375L11.8594 10.7813L13.2969 12.2187ZM14.7344 10.7813C15.4035 10.1121 15.4653 8.99653 14.7344 8.26563L13.2969 9.70313C13.2581 9.66435 13.2255 9.59557 13.2267 9.51713C13.2277 9.44467 13.2571 9.38355 13.2969 9.34375L14.7344 10.7813ZM14.7344 8.26563C14.0454 7.57668 12.9077 7.57668 12.2187 8.26563L13.6562 9.70313C13.5965 9.76286 13.5275 9.78185 13.4765 9.78185C13.4256 9.78185 13.3566 9.76286 13.2969 9.70313L14.7344 8.26563ZM12.2187 8.26563L10.7812 9.70313L12.2187 11.1406L13.6562 9.70313L12.2187 8.26563ZM12.2187 9.70313L10.7812 8.26563L9.34374 9.70313L10.7812 11.1406L12.2187 9.70313ZM10.7812 8.26563C10.0923 7.57668 8.95456 7.57668 8.26562 8.26563L9.70311 9.70313C9.64338 9.76286 9.57434 9.78185 9.52343 9.78185C9.47252 9.78185 9.40347 9.76286 9.34374 9.70313L10.7812 8.26563ZM8.26562 8.26563C7.53471 8.99653 7.59645 10.1121 8.26562 10.7813L9.70311 9.34375C9.74291 9.38355 9.77226 9.44467 9.77331 9.51713C9.77444 9.59557 9.74189 9.66435 9.70311 9.70313L8.26562 8.26563ZM8.26562 10.7813L9.70311 12.2187L11.1406 10.7813L9.70311 9.34375L8.26562 10.7813ZM9.70311 10.7813L8.26562 12.2187L9.70311 13.6562L11.1406 12.2187L9.70311 10.7813ZM8.26562 12.2187C7.53471 12.9497 7.59645 14.0652 8.26562 14.7344L9.70311 13.2969C9.74291 13.3367 9.77226 13.3978 9.77331 13.4703C9.77444 13.5487 9.74189 13.6175 9.70311 13.6562L8.26562 12.2187ZM8.26562 14.7344C8.97702 15.4458 10.0698 15.4458 10.7812 14.7344L9.34374 13.2969C9.36232 13.2783 9.4245 13.235 9.52343 13.235C9.62235 13.235 9.68454 13.2783 9.70311 13.2969L8.26562 14.7344ZM10.7812 14.7344L12.2187 13.2969L10.7812 11.8594L9.34374 13.2969L10.7812 14.7344ZM10.7812 13.2969L12.2187 14.7344L13.6562 13.2969L12.2187 11.8594L10.7812 13.2969ZM12.2187 14.7344C12.9301 15.4458 14.023 15.4458 14.7344 14.7344L13.2969 13.2969C13.3154 13.2783 13.3776 13.235 13.4765 13.235C13.5755 13.235 13.6377 13.2783 13.6562 13.2969L12.2187 14.7344Z" fill="white" mask="url(#path-1-outside-1_0_237)"/>
</svg>
