<svg width="22" height="20" viewBox="0 0 22 20" fill="none" xmlns="http://www.w3.org/2000/svg">
<path d="M19.51 6.89649L14.0551 6.17579L11.6166 1.68165C11.55 1.5586 11.4405 1.45899 11.3051 1.39844C10.9656 1.2461 10.5531 1.37305 10.3834 1.68165L7.94495 6.17579L2.49006 6.89649C2.33967 6.91602 2.20217 6.98048 2.0969 7.07813C1.96963 7.19705 1.8995 7.35704 1.90192 7.52294C1.90433 7.68884 1.9791 7.84709 2.10979 7.9629L6.05647 11.4609L5.12405 16.4004C5.10218 16.5153 5.11617 16.6335 5.16442 16.7415C5.21267 16.8496 5.29326 16.9432 5.39705 17.0117C5.50083 17.0802 5.62366 17.1209 5.75161 17.1292C5.87955 17.1375 6.00749 17.113 6.12092 17.0586L11 14.7266L15.8791 17.0586C16.0123 17.1231 16.167 17.1445 16.3153 17.1211C16.6891 17.0625 16.9405 16.7402 16.876 16.4004L15.9436 11.4609L19.8903 7.9629C19.9977 7.8672 20.0686 7.74219 20.0901 7.60548C20.1481 7.26368 19.886 6.94727 19.51 6.89649Z" fill="#FFC531"/>
</svg>
