<svg width="6" height="11" viewBox="0 0 6 11" fill="none" xmlns="http://www.w3.org/2000/svg">
<g filter="url(#filter0_d_7_1162)">
<path d="M5.72593 0.155895C5.91006 0.344858 5.9268 0.640555 5.77615 0.848925L5.72593 0.908622L1.25233 5.5L5.72593 10.0914C5.91006 10.2803 5.9268 10.576 5.77615 10.7844L5.72593 10.8441C5.54181 11.0331 5.25368 11.0503 5.05065 10.8956L4.99248 10.8441L0.151907 5.87637C-0.032219 5.6874 -0.0489578 5.39171 0.101691 5.18334L0.151907 5.12364L4.99248 0.155895C5.19502 -0.051965 5.5234 -0.051965 5.72593 0.155895Z" fill="#FF4B3A"/>
<path d="M5.72593 0.155895C5.91006 0.344858 5.9268 0.640555 5.77615 0.848925L5.72593 0.908622L1.25233 5.5L5.72593 10.0914C5.91006 10.2803 5.9268 10.576 5.77615 10.7844L5.72593 10.8441C5.54181 11.0331 5.25368 11.0503 5.05065 10.8956L4.99248 10.8441L0.151907 5.87637C-0.032219 5.6874 -0.0489578 5.39171 0.101691 5.18334L0.151907 5.12364L4.99248 0.155895C5.19502 -0.051965 5.5234 -0.051965 5.72593 0.155895Z" stroke="#FF0000"/>
</g>
<defs>
<filter id="filter0_d_7_1162" x="-4.86211" y="-0.540242" width="15.6021" height="20.7243" filterUnits="userSpaceOnUse" color-interpolation-filters="sRGB">
<feFlood flood-opacity="0" result="BackgroundImageFix"/>
<feColorMatrix in="SourceAlpha" type="matrix" values="0 0 0 0 0 0 0 0 0 0 0 0 0 0 0 0 0 0 127 0" result="hardAlpha"/>
<feOffset dy="4"/>
<feGaussianBlur stdDeviation="2"/>
<feComposite in2="hardAlpha" operator="out"/>
<feColorMatrix type="matrix" values="0 0 0 0 0 0 0 0 0 0 0 0 0 0 0 0 0 0 0.25 0"/>
<feBlend mode="normal" in2="BackgroundImageFix" result="effect1_dropShadow_7_1162"/>
<feBlend mode="normal" in="SourceGraphic" in2="effect1_dropShadow_7_1162" result="shape"/>
</filter>
</defs>
</svg>
