<svg width="13" height="12" viewBox="0 0 13 12" fill="none" xmlns="http://www.w3.org/2000/svg">
<path d="M6.05159 0.17716C6.12835 -0.0590595 6.46253 -0.059059 6.53928 0.17716L7.84967 4.21012C7.884 4.31576 7.98244 4.38728 8.09352 4.38728H12.334C12.5824 4.38728 12.6857 4.70511 12.4847 4.8511L9.05409 7.34361C8.96422 7.4089 8.92662 7.52463 8.96095 7.63027L10.2713 11.6632C10.3481 11.8994 10.0777 12.0959 9.87678 11.9499L6.44614 9.45738C6.35628 9.39209 6.2346 9.39209 6.14473 9.45738L2.7141 11.9499C2.51316 12.0959 2.24279 11.8994 2.31955 11.6632L3.62993 7.63026C3.66426 7.52462 3.62665 7.4089 3.53679 7.34361L0.106154 4.8511C-0.0947864 4.70511 0.00848333 4.38728 0.256859 4.38728H4.49736C4.60844 4.38728 4.70688 4.31576 4.74121 4.21012L6.05159 0.17716Z" fill="#FFC531"/>
</svg>
