<svg width="15" height="13" viewBox="0 0 15 13" fill="none" xmlns="http://www.w3.org/2000/svg">
<path d="M15.0001 1.82655C15.0001 0.819094 14.0392 0 12.8572 0C12.6363 0 12.422 0.0285399 12.2211 0.0827657C11.4677 0.282545 10.6106 0.50801 9.84382 0.339625C7.32595 -0.205487 4.60718 0.653563 2.68864 2.2889C0.770095 3.92423 -0.241073 6.24453 0.39844 8.39072C0.592638 9.04429 0.331476 9.77205 0.0970989 10.4171C0.0334824 10.5883 0 10.7709 0 10.9593C0 11.9668 0.960945 12.7859 2.14287 12.7859C2.36386 12.7859 2.57814 12.7573 2.78239 12.7031C3.53574 12.5033 4.39289 12.2779 5.15964 12.4462C7.67751 12.9914 10.3963 12.1323 12.3148 10.497C14.2334 8.86163 15.2445 6.54419 14.6017 4.398C14.4075 3.74443 14.6686 3.01667 14.903 2.37166C14.9666 2.20042 15.0001 2.01777 15.0001 1.82655ZM7.11501 2.7227C5.28687 3.17934 3.72994 4.50645 3.19422 6.06472C3.11051 6.30731 2.81252 6.4443 2.52792 6.37581C2.24332 6.30731 2.0826 6.05045 2.16296 5.80787C2.80248 3.94992 4.63061 2.38879 6.81367 1.84368C7.09827 1.77233 7.39626 1.91217 7.47997 2.15476C7.56367 2.39735 7.39961 2.65135 7.11501 2.7227Z" fill="#114C5F"/>
</svg>
