<svg width="24" height="26" viewBox="0 0 24 26" fill="none" xmlns="http://www.w3.org/2000/svg">
<path d="M12 2.12485C9.243 2.12485 7 4.50785 7 7.43693C7 10.366 9.243 12.749 12 12.749C14.757 12.749 17 10.366 17 7.43693C17 4.50785 14.757 2.12485 12 2.12485ZM12 10.6242C10.346 10.6242 9 9.19417 9 7.43693C9 5.67969 10.346 4.24968 12 4.24968C13.654 4.24968 15 5.67969 15 7.43693C15 9.19417 13.654 10.6242 12 10.6242ZM21 22.3108V21.2484C21 17.1485 17.859 13.8114 14 13.8114H10C6.14 13.8114 3 17.1485 3 21.2484V22.3108H5V21.2484C5 18.3193 7.243 15.9363 10 15.9363H14C16.757 15.9363 19 18.3193 19 21.2484V22.3108H21Z" fill="#273431"/>
</svg>
