<svg width="17" height="17" viewBox="0 0 17 17" fill="none" xmlns="http://www.w3.org/2000/svg">
<path d="M8.23846 0C12.7895 0 16.4769 3.80443 16.4769 8.5C16.4769 13.1956 12.7895 17 8.23846 17C3.68737 17 0 13.1956 0 8.5C0 3.80443 3.68737 0 8.23846 0ZM8.23846 15.3548C11.8926 15.3548 14.8824 12.3044 14.8824 8.5C14.8824 4.72984 11.8926 1.64516 8.23846 1.64516C4.55108 1.64516 1.59454 4.72984 1.59454 8.5C1.59454 12.3044 4.55108 15.3548 8.23846 15.3548ZM10.2649 11.7903L7.44119 9.66532C7.34153 9.59677 7.30831 9.45967 7.30831 9.35685V3.70161C7.30831 3.49597 7.47441 3.29032 7.70694 3.29032H8.76997C8.96929 3.29032 9.16861 3.49597 9.16861 3.70161V8.56854L11.3611 10.248C11.5604 10.3851 11.5936 10.625 11.4608 10.8306L10.8296 11.6875C10.6967 11.8931 10.4642 11.9274 10.2649 11.7903Z" fill="black"/>
</svg>
