<svg width="24" height="26" viewBox="0 0 24 26" fill="none" xmlns="http://www.w3.org/2000/svg">
<path d="M16.5803 17.3141C17.0241 17.3141 17.3839 16.9425 17.3839 16.4841C17.3839 16.0257 17.0241 15.6541 16.5803 15.6541C16.1365 15.6541 15.7767 16.0257 15.7767 16.4841C15.7767 16.9425 16.1365 17.3141 16.5803 17.3141Z" fill="#273431"/>
<path d="M20.1964 17.1481C20.6402 17.1481 21 16.7765 21 16.3181V13.247C21 11.4163 19.5581 9.92697 17.7857 9.92697H16.8199V6.99976C16.8199 4.31172 14.657 2.12485 11.9985 2.12485C9.33998 2.12485 7.17708 4.31172 7.17708 6.99976V9.92697H6.21429C4.44193 9.92697 3 11.4163 3 13.247V20.0531C3 21.8838 4.44193 23.3732 6.21429 23.3732H17.7857C19.5581 23.3732 21 21.8838 21 20.0531C21 19.5947 20.6402 19.2231 20.1964 19.2231C19.7526 19.2231 19.3929 19.5947 19.3929 20.0531C19.3929 20.9685 18.6719 21.7132 17.7857 21.7132H6.21429C5.32811 21.7132 4.60714 20.9685 4.60714 20.0531V13.247C4.60714 12.3317 5.32811 11.587 6.21429 11.587H17.7857C18.6719 11.587 19.3929 12.3317 19.3929 13.247V16.3181C19.3929 16.7765 19.7526 17.1481 20.1964 17.1481ZM15.2128 9.92697H8.78423V6.99976C8.78423 5.22706 10.2262 3.78487 11.9985 3.78487C13.7709 3.78487 15.2128 5.22706 15.2128 6.99976V9.92697Z" fill="#273431"/>
<path d="M10.5135 17.3141C10.9573 17.3141 11.3171 16.9425 11.3171 16.4841C11.3171 16.0257 10.9573 15.6541 10.5135 15.6541C10.0697 15.6541 9.70996 16.0257 9.70996 16.4841C9.70996 16.9425 10.0697 17.3141 10.5135 17.3141Z" fill="#273431"/>
<path d="M7.49986 17.3141C7.94366 17.3141 8.30343 16.9425 8.30343 16.4841C8.30343 16.0257 7.94366 15.6541 7.49986 15.6541C7.05606 15.6541 6.69629 16.0257 6.69629 16.4841C6.69629 16.9425 7.05606 17.3141 7.49986 17.3141Z" fill="#273431"/>
<path d="M13.5268 17.3141C13.9706 17.3141 14.3304 16.9425 14.3304 16.4841C14.3304 16.0257 13.9706 15.6541 13.5268 15.6541C13.083 15.6541 12.7233 16.0257 12.7233 16.4841C12.7233 16.9425 13.083 17.3141 13.5268 17.3141Z" fill="#273431"/>
</svg>
