<svg width="15" height="13" viewBox="0 0 15 13" fill="none" xmlns="http://www.w3.org/2000/svg">
<path d="M14.6222 0.158658C14.8595 0.308477 15.0001 0.548186 15.0001 0.800381V2.5982V9.19022C15.0001 10.2939 13.7403 11.1878 12.1876 11.1878C10.6348 11.1878 9.37506 10.2939 9.37506 9.19022C9.37506 8.08656 10.6348 7.19264 12.1876 7.19264C12.5157 7.19264 12.8321 7.23259 13.1251 7.3075V3.6719L5.62504 5.58958V10.7883C5.62504 11.8919 4.36526 12.7859 2.81252 12.7859C1.25977 12.7859 0 11.8919 0 10.7883C0 9.68462 1.25977 8.7907 2.81252 8.7907C3.14065 8.7907 3.45705 8.83066 3.75002 8.90556V4.9953V3.19748C3.75002 2.8454 4.02249 2.53328 4.418 2.43091L13.7931 0.0338092C14.0772 -0.0386031 14.3849 0.00634243 14.6222 0.158658Z" fill="#114C5F"/>
</svg>
