<svg width="29" height="26" viewBox="0 0 29 26" fill="none" xmlns="http://www.w3.org/2000/svg">
<path d="M2.71875 0C1.21777 0 0 1.44418 0 3.22421C0 4.23849 0.402149 5.19232 1.0875 5.80357L13.4125 16.7659C14.0582 17.3368 14.9418 17.3368 15.5875 16.7659L27.9125 5.80357C28.5979 5.19232 29 4.23849 29 3.22421C29 1.44418 27.7822 0 26.2813 0H2.71875ZM0 7.52315V21.4947C0 23.8659 1.62559 25.7937 3.625 25.7937H25.375C27.3744 25.7937 29 23.8659 29 21.4947V7.52315L16.675 18.4855C15.3836 19.6341 13.6164 19.6341 12.325 18.4855L0 7.52315Z" fill="black"/>
</svg>
